<svg id="svg" xmlns="http://www.w3.org/2000/svg" xmlns:xlink="http://www.w3.org/1999/xlink" width="400" height="438.135593220339" viewBox="0, 0, 400,438.135593220339"><g id="svgg"><path id="path0" d="M12.361 1.896 C 7.679 5.062,6.108 6.904,3.974 11.727 C 2.360 15.378,3.867 15.900,7.065 12.797 C 7.957 11.932,9.354 10.755,10.169 10.181 C 10.985 9.608,11.927 8.871,12.262 8.545 C 13.109 7.721,16.293 6.403,18.159 6.105 C 22.166 5.464,30.426 10.263,33.907 15.254 C 34.476 16.070,36.379 18.167,38.136 19.915 C 39.893 21.663,41.799 23.761,42.372 24.576 C 42.945 25.392,44.662 27.299,46.186 28.814 C 47.711 30.328,49.427 32.235,50.000 33.051 C 50.573 33.867,52.289 35.773,53.814 37.288 C 55.338 38.803,57.055 40.710,57.627 41.525 C 58.200 42.341,59.916 44.248,61.441 45.763 C 62.966 47.278,64.681 49.184,65.253 50.000 C 65.825 50.816,67.351 52.532,68.644 53.814 C 69.937 55.095,71.463 56.811,72.035 57.627 C 72.607 58.443,74.323 60.350,75.847 61.864 C 77.372 63.379,79.089 65.286,79.662 66.102 C 80.235 66.917,82.141 69.015,83.898 70.763 C 85.655 72.511,87.563 74.608,88.137 75.424 C 88.712 76.239,91.190 78.909,93.644 81.356 C 96.098 83.803,98.578 86.472,99.155 87.288 C 99.731 88.104,103.544 92.108,107.627 96.186 C 111.710 100.265,115.524 104.269,116.103 105.085 C 116.681 105.900,121.829 111.239,127.542 116.949 C 133.256 122.659,138.403 127.998,138.981 128.814 C 139.559 129.629,142.611 132.871,145.763 136.017 C 148.915 139.163,151.964 142.405,152.539 143.220 C 154.978 146.683,157.181 147.729,156.378 145.043 C 154.625 139.176,149.267 128.884,147.048 127.119 C 146.901 127.002,146.323 126.239,145.763 125.424 C 145.203 124.608,144.625 123.845,144.480 123.729 C 144.335 123.612,143.387 122.278,142.373 120.763 C 141.359 119.248,140.411 117.913,140.266 117.797 C 140.120 117.680,139.543 116.917,138.983 116.102 C 138.423 115.286,137.851 114.523,137.712 114.407 C 137.573 114.290,137.001 113.528,136.441 112.712 C 135.881 111.896,135.308 111.133,135.169 111.017 C 135.031 110.900,134.458 110.138,133.898 109.322 C 133.338 108.506,132.766 107.744,132.627 107.627 C 132.488 107.511,131.916 106.748,131.356 105.932 C 130.796 105.117,130.224 104.354,130.085 104.237 C 129.946 104.121,129.374 103.358,128.813 102.542 C 128.253 101.727,127.490 100.773,127.119 100.424 C 126.747 100.074,125.984 99.121,125.424 98.305 C 124.863 97.489,124.101 96.536,123.729 96.186 C 123.357 95.837,122.594 94.883,122.034 94.068 C 121.473 93.252,120.711 92.299,120.339 91.949 C 119.967 91.600,119.205 90.646,118.644 89.831 C 118.084 89.015,117.321 88.061,116.949 87.712 C 116.577 87.362,115.813 86.409,115.251 85.593 C 114.688 84.778,113.736 83.633,113.136 83.051 C 112.535 82.468,111.582 81.324,111.017 80.508 C 110.452 79.693,109.499 78.549,108.898 77.966 C 108.298 77.383,107.342 76.239,106.775 75.424 C 106.208 74.608,104.875 73.083,103.814 72.034 C 102.752 70.985,101.417 69.460,100.847 68.644 C 100.278 67.828,98.943 66.303,97.881 65.254 C 96.820 64.206,95.483 62.680,94.911 61.864 C 94.338 61.049,92.052 58.570,89.831 56.356 C 87.609 54.142,85.318 51.663,84.740 50.847 C 83.371 48.915,57.865 23.409,55.932 22.039 C 55.117 21.461,52.638 19.171,50.424 16.949 C 48.210 14.727,45.731 12.444,44.915 11.874 C 44.100 11.304,42.956 10.346,42.373 9.746 C 41.790 9.145,40.646 8.194,39.831 7.631 C 39.015 7.069,38.252 6.490,38.136 6.345 C 37.666 5.760,32.270 2.286,30.113 1.180 C 27.881 0.036,27.617 0.001,21.427 0.041 L 15.042 0.083 12.361 1.896 M368.856 1.634 C 365.303 3.484,360.785 6.520,359.322 8.041 C 358.739 8.647,357.595 9.608,356.780 10.176 C 355.964 10.744,354.248 12.266,352.966 13.559 C 351.684 14.852,349.968 16.379,349.153 16.952 C 347.218 18.311,310.683 54.844,309.323 56.780 C 308.750 57.595,307.033 59.502,305.508 61.017 C 303.984 62.532,302.269 64.439,301.697 65.254 C 301.126 66.070,299.790 67.595,298.729 68.644 C 297.667 69.693,296.333 71.218,295.765 72.034 C 295.196 72.850,294.051 74.184,293.220 75.000 C 292.390 75.816,291.247 77.150,290.681 77.966 C 290.115 78.782,289.160 79.926,288.559 80.508 C 287.959 81.091,287.007 82.235,286.444 83.051 C 285.882 83.867,285.117 84.820,284.746 85.169 C 284.374 85.519,283.610 86.472,283.047 87.288 C 282.485 88.104,281.533 89.248,280.932 89.831 C 280.332 90.413,279.380 91.557,278.817 92.373 C 278.255 93.189,277.490 94.142,277.119 94.492 C 276.747 94.841,275.984 95.794,275.424 96.610 C 274.864 97.426,274.292 98.189,274.153 98.305 C 274.014 98.422,273.441 99.184,272.881 100.000 C 272.321 100.816,271.558 101.769,271.186 102.119 C 270.815 102.468,270.052 103.422,269.492 104.237 C 268.931 105.053,268.359 105.816,268.220 105.932 C 268.081 106.049,267.509 106.811,266.949 107.627 C 266.389 108.443,265.817 109.206,265.678 109.322 C 265.539 109.439,264.967 110.201,264.407 111.017 C 263.847 111.833,263.275 112.595,263.136 112.712 C 262.997 112.828,262.425 113.591,261.864 114.407 C 261.304 115.222,260.727 115.985,260.582 116.102 C 260.437 116.218,259.488 117.553,258.475 119.068 C 257.461 120.583,256.513 121.917,256.367 122.034 C 256.222 122.150,255.645 122.913,255.085 123.729 C 254.525 124.544,253.945 125.307,253.797 125.424 C 250.526 127.998,242.061 144.996,243.581 145.936 C 244.058 146.231,251.702 138.834,253.392 136.441 C 253.969 135.625,257.781 131.621,261.864 127.542 C 265.948 123.464,269.762 119.460,270.340 118.644 C 270.918 117.828,276.257 112.299,282.203 106.356 C 288.150 100.413,293.488 94.883,294.066 94.068 C 294.643 93.252,297.504 90.201,300.424 87.288 C 303.343 84.375,306.202 81.324,306.777 80.508 C 307.352 79.693,309.260 77.595,311.017 75.847 C 312.774 74.100,314.681 72.002,315.254 71.186 C 315.828 70.371,317.735 68.273,319.492 66.525 C 321.249 64.778,323.155 62.680,323.729 61.864 C 324.302 61.049,326.209 58.951,327.966 57.203 C 329.723 55.456,331.629 53.358,332.201 52.542 C 332.774 51.727,334.300 50.011,335.593 48.729 C 336.886 47.447,338.412 45.731,338.983 44.915 C 339.554 44.100,341.080 42.383,342.373 41.102 C 343.666 39.820,345.192 38.104,345.764 37.288 C 346.336 36.472,348.051 34.566,349.576 33.051 C 351.101 31.536,352.818 29.629,353.391 28.814 C 353.964 27.998,355.870 25.900,357.627 24.153 C 359.384 22.405,361.293 20.307,361.869 19.492 C 363.437 17.272,370.312 10.520,372.622 8.931 C 378.959 4.571,384.122 5.182,390.256 11.019 C 395.604 16.107,397.687 16.053,395.234 10.888 C 393.469 7.171,390.270 3.761,386.445 1.519 L 383.853 0.000 377.837 0.045 L 371.822 0.090 368.856 1.634 M0.953 26.133 L -0.000 26.798 0.000 53.840 C 0.000 71.411,0.148 80.974,0.424 81.144 C 0.657 81.288,0.847 82.670,0.847 84.216 C 0.847 85.761,1.032 88.085,1.258 89.381 C 1.484 90.677,1.888 93.167,2.155 94.915 C 4.216 108.392,6.766 118.178,9.953 124.840 C 12.168 129.470,16.335 136.474,17.359 137.288 C 17.506 137.405,18.092 138.167,18.661 138.983 C 20.001 140.901,26.894 147.795,28.814 149.136 C 29.629 149.705,30.583 150.476,30.932 150.847 C 31.282 151.219,32.235 151.986,33.051 152.551 C 33.867 153.116,34.853 153.870,35.243 154.226 C 36.387 155.270,44.383 159.937,48.517 161.973 C 56.380 165.846,62.596 167.974,75.424 171.186 C 96.749 176.525,117.196 186.354,120.602 192.903 C 122.453 196.462,123.848 191.248,122.043 187.519 C 121.582 186.566,120.614 185.438,119.893 185.012 C 119.172 184.586,117.785 183.443,116.812 182.473 C 115.839 181.503,114.375 180.244,113.559 179.676 C 112.744 179.107,111.981 178.521,111.864 178.372 C 111.748 178.223,109.057 176.369,105.886 174.252 C 97.391 168.583,86.387 163.206,76.907 160.091 C 68.377 157.288,60.807 153.922,52.963 149.445 C 49.846 147.665,44.487 144.177,44.068 143.655 C 43.951 143.510,43.189 142.930,42.373 142.366 C 41.557 141.802,40.222 140.661,39.407 139.831 C 38.591 139.000,37.256 137.856,36.441 137.288 C 34.599 136.007,34.332 135.740,33.051 133.898 C 32.483 133.083,31.315 131.732,30.454 130.896 C 23.604 124.244,16.211 106.274,13.125 88.771 C 12.838 87.140,12.134 83.422,11.562 80.508 C 10.990 77.595,10.354 74.163,10.149 72.881 C 9.791 70.649,9.483 68.784,8.468 62.712 C 7.909 59.374,7.307 55.145,6.762 50.742 C 6.539 48.935,6.173 45.980,5.950 44.174 C 5.726 42.368,5.338 39.460,5.086 37.712 C 4.835 35.964,4.461 32.951,4.256 31.016 C 3.739 26.152,2.837 24.819,0.953 26.133 M396.334 26.375 C 395.977 26.953,395.592 29.222,394.912 34.746 C 394.668 36.727,394.283 39.825,394.057 41.631 C 393.830 43.438,393.461 46.393,393.238 48.199 C 393.014 50.005,392.633 52.865,392.390 54.555 C 392.148 56.245,391.775 58.914,391.561 60.487 C 391.348 62.060,391.051 64.015,390.901 64.831 C 390.751 65.646,390.232 68.506,389.746 71.186 C 383.605 105.108,378.732 120.339,371.606 127.897 C 371.020 128.518,370.068 129.693,369.490 130.508 C 368.111 132.454,361.215 139.339,359.322 140.661 C 358.506 141.230,357.744 141.810,357.627 141.949 C 357.511 142.088,356.748 142.664,355.932 143.229 C 355.117 143.794,354.130 144.548,353.740 144.904 C 350.017 148.302,333.139 156.648,323.729 159.745 C 318.780 161.373,309.902 164.952,306.226 166.800 C 303.022 168.411,292.736 174.488,292.373 174.985 C 292.256 175.145,290.922 176.108,289.407 177.124 C 287.892 178.141,286.176 179.469,285.593 180.075 C 285.011 180.681,283.867 181.639,283.051 182.205 C 280.620 183.889,277.196 187.676,276.674 189.257 C 275.669 192.303,277.315 195.424,278.770 193.232 C 282.292 187.928,294.477 180.931,309.958 175.323 C 315.070 173.471,317.965 172.639,324.364 171.183 C 328.658 170.205,331.535 169.405,337.300 167.585 C 341.401 166.290,351.113 162.175,353.711 160.631 C 354.816 159.975,357.785 158.220,360.308 156.731 C 362.831 155.243,365.214 153.734,365.604 153.378 C 365.994 153.022,366.981 152.266,367.797 151.697 C 368.612 151.128,369.947 149.983,370.763 149.153 C 371.578 148.322,372.913 147.176,373.729 146.606 C 375.604 145.296,376.655 144.243,377.959 142.373 C 378.527 141.557,379.484 140.413,380.085 139.831 C 380.685 139.248,381.637 138.104,382.199 137.288 C 382.762 136.472,383.339 135.710,383.482 135.593 C 386.259 133.333,392.644 119.053,394.283 111.441 C 397.169 98.032,397.136 98.214,398.339 88.983 C 398.567 87.235,398.860 83.517,398.992 80.720 C 399.123 77.924,399.404 75.454,399.615 75.233 C 400.117 74.708,400.123 29.890,399.622 28.914 C 399.414 28.509,399.037 27.654,398.783 27.013 C 398.298 25.783,396.921 25.425,396.334 26.375 M54.405 62.711 C 52.143 63.850,51.171 65.937,51.952 67.974 C 52.295 68.867,52.763 68.819,54.220 67.742 C 57.858 65.053,63.975 72.410,72.055 89.195 C 81.586 108.995,85.621 116.813,89.235 122.488 C 90.189 123.986,91.603 126.230,92.376 127.475 C 93.149 128.720,94.002 129.960,94.271 130.229 C 94.540 130.499,96.351 133.104,98.296 136.017 C 100.240 138.930,101.958 141.409,102.113 141.525 C 102.267 141.642,103.227 142.977,104.246 144.492 C 105.264 146.006,106.299 147.451,106.544 147.701 C 106.790 147.951,108.344 150.239,109.998 152.786 C 117.200 163.876,118.319 165.780,122.846 174.627 C 131.768 192.069,128.636 175.774,118.508 152.062 C 116.249 146.772,102.286 118.990,98.731 112.712 C 97.346 110.265,95.608 107.119,94.870 105.720 C 91.649 99.617,78.707 78.866,77.560 77.966 C 77.411 77.850,76.824 77.087,76.254 76.271 C 70.087 67.440,58.856 60.470,54.405 62.711 M339.571 62.675 C 335.256 64.229,328.233 69.722,325.439 73.729 C 324.870 74.544,324.096 75.498,323.719 75.847 C 323.342 76.197,322.209 77.704,321.202 79.197 C 320.195 80.690,319.064 82.268,318.690 82.704 C 318.315 83.140,316.977 85.160,315.716 87.193 C 314.454 89.226,312.655 92.129,311.716 93.644 C 310.777 95.159,309.283 97.685,308.395 99.258 C 307.506 100.832,305.987 103.501,305.019 105.191 C 299.027 115.643,284.788 143.497,281.492 151.214 C 271.694 174.154,267.382 192.950,275.680 176.548 C 277.231 173.482,279.116 169.926,279.869 168.644 C 280.622 167.362,282.067 164.883,283.081 163.136 C 284.998 159.831,293.988 146.134,294.484 145.763 C 294.640 145.646,295.596 144.311,296.610 142.797 C 297.624 141.282,298.581 139.947,298.737 139.831 C 299.274 139.430,311.181 121.397,313.007 118.220 C 314.889 114.945,322.169 100.388,327.524 89.195 C 330.430 83.119,335.080 74.883,336.452 73.379 C 336.808 72.989,337.562 72.002,338.127 71.186 C 340.643 67.556,345.763 65.632,345.763 68.318 C 345.763 69.259,347.676 68.385,347.818 67.379 C 348.340 63.678,343.868 61.128,339.571 62.675 M195.763 132.627 C 195.180 132.814,193.812 132.985,192.723 133.009 C 190.718 133.051,189.604 133.240,181.992 134.828 C 174.664 136.357,165.745 138.746,165.152 139.340 C 164.370 140.121,169.609 141.635,177.119 142.797 C 178.867 143.067,180.678 143.378,181.144 143.488 C 186.165 144.671,206.856 145.071,214.619 144.135 C 216.949 143.854,220.477 143.444,222.458 143.225 C 234.254 141.916,236.012 141.608,236.325 140.793 C 237.151 138.639,226.733 135.214,211.415 132.605 C 208.612 132.127,197.273 132.143,195.763 132.627 M299.397 189.777 C 299.271 189.981,298.419 192.423,297.502 195.204 C 296.586 197.985,294.988 202.251,293.952 204.685 C 292.916 207.119,291.634 210.350,291.103 211.864 C 289.854 215.431,285.031 225.083,284.121 225.838 C 283.508 226.347,282.846 226.129,278.922 224.122 C 271.827 220.493,266.365 221.230,263.827 226.158 C 263.439 226.912,262.524 227.837,261.795 228.214 C 260.244 229.016,259.067 230.145,257.638 232.203 C 257.072 233.019,256.484 233.782,256.332 233.898 C 256.065 234.102,255.442 235.095,249.932 244.090 C 244.754 252.542,244.273 260.552,248.401 269.569 C 252.223 277.917,257.130 275.190,266.074 259.746 C 267.087 257.998,268.533 255.519,269.288 254.237 C 271.937 249.743,274.468 244.092,276.164 238.888 C 277.268 235.501,277.695 235.327,282.177 236.434 C 287.122 237.656,295.656 237.583,296.913 236.309 C 297.814 235.395,297.636 235.216,293.363 232.734 C 290.433 231.033,289.542 229.721,290.323 228.261 C 290.833 227.309,293.637 224.604,294.133 224.586 C 294.285 224.581,295.130 223.480,296.011 222.140 C 296.893 220.800,297.772 219.595,297.966 219.462 C 298.596 219.031,301.121 212.580,301.878 209.466 C 303.791 201.594,301.810 185.873,299.397 189.777 M97.974 190.974 C 95.311 197.970,97.556 213.890,102.152 220.613 C 103.608 222.741,107.893 227.119,108.522 227.119 C 109.176 227.119,110.193 229.108,109.912 229.840 C 109.759 230.236,107.938 231.702,105.864 233.097 C 103.790 234.491,102.201 235.807,102.333 236.021 C 103.251 237.506,113.170 237.783,117.373 236.441 C 121.669 235.068,122.494 235.302,123.084 238.057 C 123.520 240.093,126.400 247.023,128.091 250.105 C 128.891 251.562,130.488 254.470,131.640 256.568 C 134.334 261.472,137.318 266.394,138.145 267.299 C 138.502 267.689,139.257 268.676,139.823 269.492 C 145.074 277.059,150.278 275.547,152.557 265.793 C 155.424 253.522,154.761 251.150,143.954 235.004 C 140.537 229.899,138.281 227.316,135.593 225.432 C 134.778 224.860,133.832 224.121,133.491 223.790 C 132.345 222.673,130.128 222.034,127.404 222.034 C 124.643 222.034,124.376 222.133,118.432 225.372 C 115.739 226.840,115.288 226.559,113.068 222.034 C 109.813 215.397,105.408 204.757,103.170 198.125 C 100.464 190.108,99.046 188.157,97.974 190.974 M153.621 209.411 C 153.786 210.159,154.280 211.611,154.720 212.638 C 155.160 213.665,156.008 215.961,156.603 217.740 C 157.199 219.519,158.483 222.779,159.457 224.985 C 161.254 229.052,162.279 231.108,168.781 243.682 C 172.679 251.221,175.608 257.794,177.408 263.044 C 178.536 266.335,178.871 268.925,179.669 280.508 C 180.519 292.833,180.733 295.147,181.076 295.677 C 181.600 296.489,182.516 295.578,182.830 293.933 C 182.971 293.191,183.445 290.964,183.882 288.983 C 184.320 287.002,184.889 283.951,185.148 282.203 C 185.407 280.456,185.804 277.965,186.030 276.669 C 187.329 269.218,186.180 258.927,183.243 251.721 C 181.177 246.649,175.262 235.575,174.177 234.746 C 174.025 234.629,173.442 233.867,172.881 233.051 C 172.321 232.235,171.744 231.472,171.599 231.356 C 171.454 231.239,170.505 229.905,169.492 228.390 C 168.478 226.875,167.524 225.540,167.373 225.424 C 167.221 225.307,166.263 223.972,165.244 222.458 C 164.224 220.943,162.943 219.227,162.397 218.644 C 161.851 218.061,160.710 216.536,159.861 215.254 C 159.013 213.972,158.201 212.828,158.058 212.712 C 157.915 212.595,157.340 211.833,156.779 211.017 C 154.696 207.984,153.133 207.190,153.621 209.411 M243.160 210.699 C 242.177 212.156,241.065 213.633,240.688 213.983 C 240.311 214.333,239.544 215.286,238.983 216.102 C 238.423 216.917,237.846 217.680,237.700 217.797 C 237.555 217.913,236.607 219.248,235.593 220.763 C 234.579 222.278,233.626 223.612,233.475 223.729 C 233.323 223.845,232.370 225.180,231.356 226.695 C 230.342 228.210,229.394 229.544,229.249 229.661 C 229.103 229.778,228.522 230.540,227.957 231.356 C 227.392 232.172,226.639 233.158,226.283 233.548 C 225.395 234.521,220.708 242.421,219.108 245.641 C 213.963 255.996,211.834 265.822,213.118 273.280 C 213.341 274.575,213.729 276.970,213.981 278.602 C 217.807 303.391,218.494 303.023,220.311 275.212 C 221.057 263.798,224.305 255.158,235.602 234.534 C 238.760 228.769,246.466 209.269,245.929 208.401 C 245.470 207.658,244.885 208.143,243.160 210.699 M113.710 250.642 C 113.575 250.995,113.596 251.710,113.757 252.231 C 113.918 252.752,114.229 255.371,114.448 258.051 C 115.692 273.262,116.464 280.207,117.790 288.136 C 118.043 289.650,118.415 291.939,118.617 293.220 C 119.184 296.820,120.618 302.096,123.108 309.746 C 126.087 318.900,126.935 321.842,127.990 326.695 C 128.471 328.909,129.156 332.055,129.512 333.686 C 130.575 338.554,131.068 341.930,132.237 352.331 C 132.639 355.908,132.889 358.781,133.873 371.081 C 135.070 386.061,136.764 392.079,141.962 399.825 C 143.199 401.669,144.331 403.273,144.478 403.390 C 144.624 403.506,145.210 404.269,145.778 405.085 C 147.107 406.990,150.637 410.520,152.542 411.849 C 153.358 412.418,154.121 413.008,154.237 413.162 C 154.554 413.579,164.847 419.658,166.314 420.294 C 168.936 421.431,181.742 422.322,182.203 421.398 C 182.320 421.165,179.835 419.640,176.680 418.008 C 170.889 415.013,165.644 412.016,165.254 411.480 C 165.138 411.319,164.375 410.722,163.559 410.152 C 160.868 408.273,153.528 400.590,151.375 397.400 C 144.061 386.561,142.351 379.877,141.525 358.898 C 141.310 353.422,140.944 347.320,140.711 345.339 C 140.479 343.358,140.112 340.212,139.896 338.347 C 139.355 333.677,137.450 324.656,136.237 321.023 C 135.684 319.365,134.822 316.388,134.322 314.407 C 133.821 312.426,133.155 309.947,132.840 308.898 C 131.243 303.576,129.528 297.861,128.356 293.962 C 127.638 291.573,126.509 287.807,125.847 285.593 C 115.580 251.242,114.582 248.369,113.710 250.642 M284.350 251.377 C 284.142 251.901,282.987 255.477,281.783 259.322 C 280.579 263.167,278.479 269.841,277.117 274.153 C 275.754 278.464,273.863 284.518,272.913 287.606 C 271.963 290.694,270.436 295.651,269.518 298.623 C 268.600 301.594,267.456 305.408,266.976 307.097 C 265.080 313.761,264.373 316.215,263.558 318.962 C 262.624 322.108,261.588 326.792,260.957 330.720 C 259.513 339.719,259.069 344.388,258.478 356.780 C 257.551 376.230,256.428 382.035,251.794 391.314 C 249.834 395.238,247.816 398.459,246.617 399.576 C 246.241 399.926,245.469 400.879,244.900 401.695 C 243.586 403.579,240.062 407.111,238.136 408.475 C 237.320 409.052,236.147 410.003,235.529 410.589 C 233.862 412.167,226.278 416.610,221.029 419.083 C 215.502 421.688,215.542 422.212,221.250 421.907 C 230.734 421.400,233.212 420.658,241.055 415.976 C 245.484 413.332,252.623 406.923,255.074 403.390 C 255.640 402.574,256.220 401.811,256.363 401.695 C 257.187 401.024,259.649 396.873,261.218 393.508 C 264.150 387.220,264.848 383.366,266.106 366.525 C 266.923 355.591,267.374 351.157,268.584 342.161 C 269.153 337.936,271.857 324.870,272.838 321.610 C 273.294 320.095,274.073 317.426,274.569 315.678 C 275.065 313.930,276.409 309.592,277.555 306.038 C 281.236 294.629,282.601 286.472,284.772 262.924 C 285.819 251.571,285.688 248.001,284.350 251.377 M175.618 330.027 C 169.972 331.988,161.446 338.647,157.638 344.068 C 157.065 344.883,156.370 345.784,156.094 346.069 C 155.088 347.107,153.760 349.571,153.998 349.956 C 154.364 350.548,162.363 347.190,172.012 342.394 C 183.108 336.879,184.565 336.812,195.142 341.330 L 199.564 343.218 203.913 341.479 C 215.996 336.648,216.241 336.667,230.365 343.527 C 240.382 348.393,243.997 350.000,244.924 350.000 C 245.524 350.000,245.434 348.464,244.795 347.806 C 244.496 347.498,243.790 346.578,243.226 345.763 C 242.663 344.947,241.897 343.994,241.525 343.644 C 241.154 343.294,240.385 342.341,239.817 341.525 C 238.503 339.636,236.634 337.768,234.746 336.454 C 233.930 335.887,233.167 335.305,233.051 335.162 C 231.265 332.968,223.007 329.165,219.492 328.917 C 213.896 328.522,205.780 333.453,202.285 339.369 C 200.577 342.262,198.933 341.986,196.512 338.400 C 191.201 330.534,183.287 327.362,175.618 330.027 M174.917 349.974 C 168.419 352.180,165.522 356.095,165.491 362.712 C 165.463 368.430,166.621 369.926,174.863 374.814 C 181.952 379.020,183.051 380.368,183.051 384.859 C 183.051 387.941,182.752 388.134,177.987 388.142 C 169.989 388.154,169.607 389.898,176.907 393.063 C 184.911 396.534,185.405 396.611,199.663 396.603 C 213.484 396.595,214.520 396.449,221.778 393.498 C 229.985 390.161,229.872 388.136,221.478 388.136 C 216.215 388.136,215.860 387.908,216.233 384.761 C 216.744 380.448,218.537 378.461,225.909 374.039 C 233.408 369.541,235.196 366.379,233.930 359.859 C 232.840 354.247,229.994 351.412,223.854 349.821 C 217.953 348.292,215.627 349.243,208.892 355.939 C 200.474 364.308,199.433 364.353,191.784 356.682 C 184.612 349.489,180.804 347.975,174.917 349.974 " stroke="none" fill="#000000" fill-rule="evenodd"></path></g></svg>